<svg width="680" height="600" viewBox="0 0 680 600" fill="none" xmlns="http://www.w3.org/2000/svg">
<g clip-path="url(#clip0_7_268)">
<g filter="url(#filter0_d_7_268)">
<rect x="284.556" y="65" width="355" height="442" rx="16" fill="white"/>
</g>
<rect x="320.556" y="116" width="178" height="10" rx="5" fill="#D9D9D9"/>
<rect x="320.556" y="153" width="282" height="8" rx="4" fill="#D9D9D9"/>
<rect x="320.556" y="168" width="282" height="8" rx="4" fill="#D9D9D9"/>
<rect x="320.556" y="183" width="282" height="8" rx="4" fill="#D9D9D9"/>
<rect x="320.556" y="198" width="282" height="8" rx="4" fill="#D9D9D9"/>
<rect x="320.556" y="226.324" width="120" height="8" rx="4" fill="#D9D9D9"/>
<rect x="320.556" y="246.324" width="90" height="8" rx="4" fill="#D9D9D9"/>
<rect x="416.556" y="246.324" width="90" height="8" rx="4" fill="#D9D9D9"/>
<rect x="512.556" y="246.324" width="90" height="8" rx="4" fill="#D9D9D9"/>
<rect x="320.556" y="261.324" width="90" height="8" rx="4" fill="#D9D9D9"/>
<rect x="416.556" y="261.324" width="90" height="8" rx="4" fill="#D9D9D9"/>
<rect x="512.556" y="261.324" width="90" height="8" rx="4" fill="#D9D9D9"/>
<rect x="320.556" y="276.324" width="90" height="8" rx="4" fill="#D9D9D9"/>
<rect x="416.556" y="276.324" width="90" height="8" rx="4" fill="#D9D9D9"/>
<rect x="512.556" y="276.324" width="90" height="8" rx="4" fill="#D9D9D9"/>
<rect x="320.556" y="291.324" width="90" height="8" rx="4" fill="#D9D9D9"/>
<rect x="416.556" y="291.324" width="90" height="8" rx="4" fill="#D9D9D9"/>
<rect x="512.556" y="291.324" width="90" height="8" rx="4" fill="#D9D9D9"/>
<rect x="320.556" y="313" width="60" height="8" rx="4" fill="#D9D9D9"/>
<rect x="542.556" y="434" width="60" height="8" rx="4" fill="#D9D9D9"/>
<rect x="542.556" y="448" width="60" height="8" rx="4" fill="#D9D9D9"/>
<rect x="320.556" y="463" width="164" height="8" rx="4" fill="#D9D9D9"/>
<rect x="320.556" y="408" width="60" height="8" rx="4" fill="#D9D9D9"/>
<rect x="320.556" y="328" width="282" height="8" rx="4" fill="#D9D9D9"/>
<rect x="320.556" y="343" width="282" height="8" rx="4" fill="#D9D9D9"/>
<rect x="512.556" y="358" width="90" height="8" rx="4" fill="#D9D9D9"/>
<rect x="512.556" y="373" width="90" height="8" rx="4" fill="#D9D9D9"/>
<g filter="url(#filter1_d_7_268)">
<rect x="317.815" y="310.208" width="66.308" height="13.5967" rx="6.79834" fill="#F89C2A" fill-opacity="0.2"/>
<rect x="318.352" y="310.746" width="65.2334" height="12.5221" rx="6.26103" stroke="#F89C2A" stroke-width="1.07463" stroke-linecap="round" stroke-linejoin="round" stroke-dasharray="4.3 4.3"/>
</g>
<g filter="url(#filter2_d_7_268)">
<rect x="316.328" y="150.162" width="289.224" height="13.4868" rx="6.74341" fill="#F89C2A" fill-opacity="0.2"/>
<rect x="316.865" y="150.699" width="288.15" height="12.4122" rx="6.20609" stroke="#F89C2A" stroke-width="1.07463" stroke-linecap="round" stroke-linejoin="round" stroke-dasharray="4.3 4.3"/>
</g>
<g filter="url(#filter3_d_7_268)">
<rect x="316.139" y="459.657" width="172.069" height="14.8892" rx="6" fill="#F89C2A" fill-opacity="0.2"/>
<rect x="316.677" y="460.194" width="170.995" height="13.8145" rx="5.46269" stroke="#F89C2A" stroke-width="1.07463" stroke-linecap="round" stroke-linejoin="round" stroke-dasharray="4.3 4.3"/>
</g>
<line x1="261.357" y1="311.415" x2="317.867" y2="317.354" stroke="#F89C2A"/>
<line x1="257.602" y1="460.446" x2="316.192" y2="466.604" stroke="#F89C2A"/>
<line x1="241.496" y1="147.095" x2="316.571" y2="154.986" stroke="#F89C2A"/>
<rect x="159.55" y="433.157" width="98" height="53" rx="12" fill="#F89C2A"/>
<path d="M184.15 447.157H189.07V447.937H187.03V454.157H186.19V447.937H184.15V447.157ZM196.353 451.737C196.353 452.15 196.283 452.517 196.143 452.837C196.01 453.15 195.83 453.417 195.603 453.637C195.376 453.85 195.11 454.014 194.803 454.127C194.503 454.24 194.19 454.297 193.863 454.297C193.53 454.297 193.213 454.24 192.913 454.127C192.613 454.014 192.35 453.85 192.123 453.637C191.896 453.417 191.713 453.15 191.573 452.837C191.44 452.517 191.373 452.15 191.373 451.737V451.617C191.373 451.21 191.44 450.85 191.573 450.537C191.713 450.217 191.896 449.947 192.123 449.727C192.356 449.507 192.623 449.34 192.923 449.227C193.223 449.114 193.536 449.057 193.863 449.057C194.19 449.057 194.503 449.114 194.803 449.227C195.103 449.34 195.366 449.507 195.593 449.727C195.826 449.947 196.01 450.217 196.143 450.537C196.283 450.85 196.353 451.21 196.353 451.617V451.737ZM193.863 453.557C194.103 453.557 194.323 453.517 194.523 453.437C194.73 453.35 194.91 453.227 195.063 453.067C195.216 452.907 195.336 452.717 195.423 452.497C195.51 452.27 195.553 452.017 195.553 451.737V451.617C195.553 451.35 195.51 451.107 195.423 450.887C195.336 450.66 195.216 450.467 195.063 450.307C194.91 450.147 194.73 450.024 194.523 449.937C194.316 449.844 194.096 449.797 193.863 449.797C193.63 449.797 193.41 449.844 193.203 449.937C192.996 450.024 192.816 450.147 192.663 450.307C192.51 450.467 192.39 450.66 192.303 450.887C192.216 451.107 192.173 451.35 192.173 451.617V451.737C192.173 452.017 192.216 452.27 192.303 452.497C192.39 452.717 192.51 452.907 192.663 453.067C192.816 453.227 192.993 453.35 193.193 453.437C193.4 453.517 193.623 453.557 193.863 453.557ZM198.757 449.197H200.317V447.157H201.097V449.197H203.017V449.917H201.097V453.137C201.097 453.337 201.187 453.437 201.367 453.437H202.777V454.157H201.087C200.86 454.157 200.673 454.084 200.527 453.937C200.387 453.79 200.317 453.604 200.317 453.377V449.917H198.757V449.197ZM209.78 453.317H209.66C209.5 453.65 209.277 453.897 208.99 454.057C208.71 454.217 208.413 454.297 208.1 454.297C207.773 454.297 207.47 454.244 207.19 454.137C206.91 454.024 206.663 453.86 206.45 453.647C206.243 453.427 206.08 453.16 205.96 452.847C205.84 452.534 205.78 452.17 205.78 451.757V451.597C205.78 451.19 205.84 450.83 205.96 450.517C206.08 450.204 206.243 449.94 206.45 449.727C206.663 449.507 206.91 449.34 207.19 449.227C207.47 449.114 207.767 449.057 208.08 449.057C208.42 449.057 208.727 449.134 209 449.287C209.28 449.434 209.5 449.664 209.66 449.977H209.78V449.197H210.56V453.137C210.56 453.337 210.65 453.437 210.83 453.437H211.08V454.157H210.55C210.323 454.157 210.137 454.084 209.99 453.937C209.85 453.79 209.78 453.604 209.78 453.377V453.317ZM208.18 453.557C208.413 453.557 208.627 453.514 208.82 453.427C209.02 453.34 209.19 453.217 209.33 453.057C209.47 452.897 209.58 452.707 209.66 452.487C209.74 452.26 209.78 452.01 209.78 451.737V451.617C209.78 451.35 209.74 451.107 209.66 450.887C209.58 450.66 209.467 450.467 209.32 450.307C209.18 450.147 209.01 450.024 208.81 449.937C208.617 449.844 208.407 449.797 208.18 449.797C207.947 449.797 207.733 449.84 207.54 449.927C207.347 450.014 207.177 450.137 207.03 450.297C206.89 450.45 206.78 450.64 206.7 450.867C206.62 451.087 206.58 451.33 206.58 451.597V451.757C206.58 452.324 206.727 452.767 207.02 453.087C207.32 453.4 207.707 453.557 208.18 453.557ZM213.433 453.437H215.233V447.877H213.493V447.157H216.013V453.437H217.813V454.157H213.433V453.437Z" fill="white"/>
<path d="M187.798 463.885C188.342 463.997 188.762 464.221 189.058 464.557C189.354 464.893 189.502 465.293 189.502 465.757V465.925H188.134V465.757C188.134 465.661 188.106 465.569 188.05 465.481C188.002 465.385 187.918 465.305 187.798 465.241V466.321C189.03 466.489 189.646 467.077 189.646 468.085V468.157C189.646 468.693 189.482 469.129 189.154 469.465C188.834 469.801 188.382 470.005 187.798 470.077V470.821H186.646V470.041C186.318 469.985 186.038 469.893 185.806 469.765C185.574 469.629 185.382 469.469 185.23 469.285C185.086 469.101 184.978 468.897 184.906 468.673C184.834 468.441 184.798 468.205 184.798 467.965V467.725H186.166V467.893C186.166 468.077 186.202 468.237 186.274 468.373C186.346 468.509 186.47 468.617 186.646 468.697V467.401C186.094 467.305 185.658 467.125 185.338 466.861C185.026 466.597 184.87 466.213 184.87 465.709V465.637C184.87 465.365 184.918 465.129 185.014 464.929C185.11 464.721 185.238 464.545 185.398 464.401C185.558 464.249 185.746 464.129 185.962 464.041C186.178 463.953 186.406 463.889 186.646 463.849V463.093H187.798V463.885ZM188.278 468.181C188.278 468.061 188.25 467.953 188.194 467.857C188.138 467.753 188.006 467.669 187.798 467.605V468.745C187.982 468.689 188.106 468.609 188.17 468.505C188.242 468.401 188.278 468.293 188.278 468.181ZM186.238 465.637C186.238 465.749 186.262 465.845 186.31 465.925C186.358 465.997 186.47 466.065 186.646 466.129V465.181C186.502 465.229 186.398 465.297 186.334 465.385C186.27 465.465 186.238 465.549 186.238 465.637ZM198.581 469.645V471.157H192.677V469.501C192.677 469.061 192.741 468.685 192.869 468.373C193.005 468.061 193.193 467.797 193.433 467.581C193.681 467.365 193.977 467.189 194.321 467.053C194.665 466.909 195.053 466.789 195.485 466.693C195.805 466.621 196.065 466.541 196.265 466.453C196.473 466.357 196.637 466.253 196.757 466.141C196.877 466.021 196.957 465.893 196.997 465.757C197.045 465.613 197.069 465.453 197.069 465.277C197.069 464.941 196.945 464.661 196.697 464.437C196.457 464.213 196.121 464.101 195.689 464.101C195.233 464.101 194.869 464.241 194.597 464.521C194.325 464.793 194.189 465.173 194.189 465.661V466.189H192.605V465.517C192.605 465.125 192.673 464.753 192.809 464.401C192.953 464.041 193.153 463.729 193.409 463.465C193.673 463.193 193.993 462.981 194.369 462.829C194.745 462.669 195.169 462.589 195.641 462.589C196.145 462.589 196.585 462.665 196.961 462.817C197.337 462.961 197.649 463.153 197.897 463.393C198.153 463.633 198.341 463.913 198.461 464.233C198.589 464.545 198.653 464.869 198.653 465.205V465.349C198.653 466.053 198.453 466.637 198.053 467.101C197.661 467.565 197.017 467.901 196.121 468.109C195.745 468.197 195.433 468.289 195.185 468.385C194.945 468.473 194.757 468.573 194.621 468.685C194.485 468.797 194.389 468.921 194.333 469.057C194.285 469.185 194.261 469.333 194.261 469.501V469.645H198.581ZM202.777 470.185C202.777 470.033 202.805 469.889 202.861 469.753C202.925 469.609 203.009 469.489 203.113 469.393C203.217 469.289 203.337 469.209 203.473 469.153C203.609 469.089 203.757 469.057 203.917 469.057C204.069 469.057 204.213 469.089 204.349 469.153C204.493 469.209 204.617 469.289 204.721 469.393C204.825 469.489 204.905 469.609 204.961 469.753C205.025 469.889 205.057 470.033 205.057 470.185V471.649C205.057 471.953 204.953 472.209 204.745 472.417C204.545 472.625 204.293 472.729 203.989 472.729H203.221V471.793H203.797C204.013 471.793 204.121 471.673 204.121 471.433V471.289C204.057 471.313 203.989 471.325 203.917 471.325C203.757 471.325 203.609 471.293 203.473 471.229C203.337 471.173 203.217 471.093 203.113 470.989C203.009 470.885 202.925 470.765 202.861 470.629C202.805 470.493 202.777 470.345 202.777 470.185ZM211.257 466.957C211.257 466.685 211.357 466.449 211.557 466.249C211.757 466.049 211.993 465.949 212.265 465.949C212.537 465.949 212.773 466.049 212.973 466.249C213.173 466.449 213.273 466.685 213.273 466.957C213.273 467.229 213.173 467.465 212.973 467.665C212.773 467.865 212.537 467.965 212.265 467.965C211.993 467.965 211.757 467.865 211.557 467.665C211.357 467.465 211.257 467.229 211.257 466.957ZM209.169 466.021C209.169 464.933 209.441 464.089 209.985 463.489C210.537 462.889 211.297 462.589 212.265 462.589C213.233 462.589 213.989 462.889 214.533 463.489C215.085 464.089 215.361 464.933 215.361 466.021V467.893C215.361 469.013 215.085 469.865 214.533 470.449C213.989 471.033 213.233 471.325 212.265 471.325C211.297 471.325 210.537 471.033 209.985 470.449C209.441 469.865 209.169 469.013 209.169 467.893V466.021ZM212.265 469.885C212.553 469.885 212.793 469.841 212.985 469.753C213.177 469.657 213.333 469.525 213.453 469.357C213.573 469.189 213.657 468.989 213.705 468.757C213.753 468.525 213.777 468.269 213.777 467.989V465.925C213.777 465.661 213.749 465.413 213.693 465.181C213.637 464.949 213.549 464.749 213.429 464.581C213.309 464.413 213.153 464.281 212.961 464.185C212.769 464.081 212.537 464.029 212.265 464.029C211.993 464.029 211.761 464.081 211.569 464.185C211.377 464.281 211.221 464.413 211.101 464.581C210.981 464.749 210.893 464.949 210.837 465.181C210.781 465.413 210.753 465.661 210.753 465.925V467.989C210.753 468.269 210.777 468.525 210.825 468.757C210.873 468.989 210.957 469.189 211.077 469.357C211.197 469.525 211.353 469.657 211.545 469.753C211.737 469.841 211.977 469.885 212.265 469.885ZM219.604 466.957C219.604 466.685 219.704 466.449 219.904 466.249C220.104 466.049 220.34 465.949 220.612 465.949C220.884 465.949 221.12 466.049 221.32 466.249C221.52 466.449 221.62 466.685 221.62 466.957C221.62 467.229 221.52 467.465 221.32 467.665C221.12 467.865 220.884 467.965 220.612 467.965C220.34 467.965 220.104 467.865 219.904 467.665C219.704 467.465 219.604 467.229 219.604 466.957ZM217.516 466.021C217.516 464.933 217.788 464.089 218.332 463.489C218.884 462.889 219.644 462.589 220.612 462.589C221.58 462.589 222.336 462.889 222.88 463.489C223.432 464.089 223.708 464.933 223.708 466.021V467.893C223.708 469.013 223.432 469.865 222.88 470.449C222.336 471.033 221.58 471.325 220.612 471.325C219.644 471.325 218.884 471.033 218.332 470.449C217.788 469.865 217.516 469.013 217.516 467.893V466.021ZM220.612 469.885C220.9 469.885 221.14 469.841 221.332 469.753C221.524 469.657 221.68 469.525 221.8 469.357C221.92 469.189 222.004 468.989 222.052 468.757C222.1 468.525 222.124 468.269 222.124 467.989V465.925C222.124 465.661 222.096 465.413 222.04 465.181C221.984 464.949 221.896 464.749 221.776 464.581C221.656 464.413 221.5 464.281 221.308 464.185C221.116 464.081 220.884 464.029 220.612 464.029C220.34 464.029 220.108 464.081 219.916 464.185C219.724 464.281 219.568 464.413 219.448 464.581C219.328 464.749 219.24 464.949 219.184 465.181C219.128 465.413 219.1 465.661 219.1 465.925V467.989C219.1 468.269 219.124 468.525 219.172 468.757C219.22 468.989 219.304 469.189 219.424 469.357C219.544 469.525 219.7 469.657 219.892 469.753C220.084 469.841 220.324 469.885 220.612 469.885ZM226.08 467.413V462.757H231.696V464.269H227.664V466.549H227.88C227.992 466.237 228.2 465.969 228.504 465.745C228.816 465.513 229.232 465.397 229.752 465.397C230.144 465.397 230.496 465.465 230.808 465.601C231.12 465.737 231.384 465.925 231.6 466.165C231.816 466.405 231.98 466.693 232.092 467.029C232.212 467.365 232.272 467.733 232.272 468.133V468.205C232.272 468.629 232.2 469.029 232.056 469.405C231.92 469.781 231.716 470.113 231.444 470.401C231.18 470.681 230.852 470.905 230.46 471.073C230.068 471.241 229.616 471.325 229.104 471.325C228.592 471.325 228.14 471.257 227.748 471.121C227.356 470.977 227.024 470.781 226.752 470.533C226.488 470.277 226.284 469.977 226.14 469.633C226.004 469.281 225.936 468.901 225.936 468.493V468.205H227.52V468.349C227.52 468.773 227.648 469.125 227.904 469.405C228.168 469.677 228.552 469.813 229.056 469.813C229.56 469.813 229.956 469.677 230.244 469.405C230.54 469.133 230.688 468.757 230.688 468.277C230.688 467.821 230.58 467.481 230.364 467.257C230.148 467.025 229.864 466.909 229.512 466.909C229.28 466.909 229.092 466.961 228.948 467.065C228.804 467.161 228.712 467.277 228.672 467.413H226.08Z" fill="white"/>
<rect x="92.5564" y="269.324" width="201" height="70" rx="12" fill="#F89C2A"/>
<path d="M118.246 287.444V290.324H117.406V283.324H119.906C120.266 283.324 120.58 283.378 120.846 283.484C121.113 283.584 121.333 283.721 121.506 283.894C121.686 284.068 121.82 284.271 121.906 284.504C122 284.731 122.046 284.971 122.046 285.224V285.524C122.046 285.778 122 286.021 121.906 286.254C121.82 286.488 121.686 286.694 121.506 286.874C121.326 287.048 121.103 287.188 120.836 287.294C120.57 287.394 120.26 287.444 119.906 287.444H118.246ZM118.246 286.664H119.806C120.74 286.664 121.206 286.264 121.206 285.464V285.284C121.206 284.931 121.09 284.648 120.856 284.434C120.63 284.214 120.28 284.104 119.806 284.104H118.246V286.664ZM124.4 285.364H126.2V286.024H126.32C126.446 285.751 126.626 285.551 126.86 285.424C127.093 285.291 127.36 285.224 127.66 285.224C128.16 285.224 128.563 285.388 128.87 285.714C129.176 286.041 129.34 286.518 129.36 287.144L128.54 287.264C128.54 286.804 128.43 286.474 128.21 286.274C127.99 286.068 127.72 285.964 127.4 285.964C127.193 285.964 127.013 286.004 126.86 286.084C126.713 286.164 126.59 286.274 126.49 286.414C126.39 286.554 126.316 286.718 126.27 286.904C126.223 287.091 126.2 287.291 126.2 287.504V289.604H127.46V290.324H124.28V289.604H125.42V286.084H124.4V285.364ZM136.613 287.904C136.613 288.318 136.543 288.684 136.403 289.004C136.27 289.318 136.09 289.584 135.863 289.804C135.636 290.018 135.37 290.181 135.063 290.294C134.763 290.408 134.45 290.464 134.123 290.464C133.79 290.464 133.473 290.408 133.173 290.294C132.873 290.181 132.61 290.018 132.383 289.804C132.156 289.584 131.973 289.318 131.833 289.004C131.7 288.684 131.633 288.318 131.633 287.904V287.784C131.633 287.378 131.7 287.018 131.833 286.704C131.973 286.384 132.156 286.114 132.383 285.894C132.616 285.674 132.883 285.508 133.183 285.394C133.483 285.281 133.796 285.224 134.123 285.224C134.45 285.224 134.763 285.281 135.063 285.394C135.363 285.508 135.626 285.674 135.853 285.894C136.086 286.114 136.27 286.384 136.403 286.704C136.543 287.018 136.613 287.378 136.613 287.784V287.904ZM134.123 289.724C134.363 289.724 134.583 289.684 134.783 289.604C134.99 289.518 135.17 289.394 135.323 289.234C135.476 289.074 135.596 288.884 135.683 288.664C135.77 288.438 135.813 288.184 135.813 287.904V287.784C135.813 287.518 135.77 287.274 135.683 287.054C135.596 286.828 135.476 286.634 135.323 286.474C135.17 286.314 134.99 286.191 134.783 286.104C134.576 286.011 134.356 285.964 134.123 285.964C133.89 285.964 133.67 286.011 133.463 286.104C133.256 286.191 133.076 286.314 132.923 286.474C132.77 286.634 132.65 286.828 132.563 287.054C132.476 287.274 132.433 287.518 132.433 287.784V287.904C132.433 288.184 132.476 288.438 132.563 288.664C132.65 288.884 132.77 289.074 132.923 289.234C133.076 289.394 133.253 289.518 133.453 289.604C133.66 289.684 133.883 289.724 134.123 289.724ZM143.026 289.564H142.906C142.826 289.718 142.723 289.851 142.596 289.964C142.476 290.078 142.343 290.171 142.196 290.244C142.056 290.318 141.906 290.371 141.746 290.404C141.586 290.444 141.433 290.464 141.286 290.464C140.953 290.464 140.643 290.408 140.356 290.294C140.07 290.181 139.816 290.018 139.596 289.804C139.383 289.591 139.213 289.328 139.086 289.014C138.966 288.694 138.906 288.331 138.906 287.924V287.764C138.906 287.364 138.97 287.008 139.096 286.694C139.223 286.374 139.393 286.108 139.606 285.894C139.82 285.674 140.07 285.508 140.356 285.394C140.643 285.281 140.946 285.224 141.266 285.224C141.606 285.224 141.923 285.301 142.216 285.454C142.516 285.601 142.746 285.831 142.906 286.144H143.026V283.324H143.806V290.324H143.026V289.564ZM141.366 289.724C141.6 289.724 141.816 289.681 142.016 289.594C142.216 289.508 142.39 289.384 142.536 289.224C142.69 289.064 142.81 288.874 142.896 288.654C142.983 288.428 143.026 288.178 143.026 287.904V287.784C143.026 287.518 142.983 287.274 142.896 287.054C142.81 286.828 142.69 286.634 142.536 286.474C142.39 286.314 142.213 286.191 142.006 286.104C141.806 286.011 141.593 285.964 141.366 285.964C141.133 285.964 140.913 286.008 140.706 286.094C140.506 286.181 140.33 286.304 140.176 286.464C140.03 286.624 139.913 286.814 139.826 287.034C139.746 287.254 139.706 287.498 139.706 287.764V287.924C139.706 288.204 139.746 288.454 139.826 288.674C139.913 288.894 140.03 289.084 140.176 289.244C140.33 289.398 140.506 289.518 140.706 289.604C140.906 289.684 141.126 289.724 141.366 289.724ZM149.98 285.364H150.76V290.324H149.98V289.424H149.86C149.7 289.744 149.49 289.998 149.23 290.184C148.97 290.371 148.64 290.464 148.24 290.464C147.966 290.464 147.713 290.418 147.48 290.324C147.253 290.238 147.056 290.104 146.89 289.924C146.73 289.744 146.603 289.521 146.51 289.254C146.423 288.988 146.38 288.678 146.38 288.324V285.364H147.16V288.224C147.16 288.744 147.266 289.124 147.48 289.364C147.693 289.604 148.02 289.724 148.46 289.724C148.933 289.724 149.303 289.564 149.57 289.244C149.843 288.918 149.98 288.484 149.98 287.944V285.364ZM158.333 288.564C158.28 288.838 158.186 289.091 158.053 289.324C157.926 289.558 157.763 289.761 157.563 289.934C157.363 290.101 157.13 290.231 156.863 290.324C156.596 290.418 156.3 290.464 155.973 290.464C155.626 290.464 155.296 290.408 154.983 290.294C154.676 290.181 154.406 290.018 154.173 289.804C153.94 289.584 153.753 289.318 153.613 289.004C153.48 288.691 153.413 288.331 153.413 287.924V287.804C153.413 287.404 153.48 287.044 153.613 286.724C153.753 286.404 153.94 286.134 154.173 285.914C154.406 285.694 154.676 285.524 154.983 285.404C155.296 285.284 155.626 285.224 155.973 285.224C156.286 285.224 156.576 285.271 156.843 285.364C157.11 285.458 157.343 285.591 157.543 285.764C157.75 285.931 157.916 286.131 158.043 286.364C158.176 286.598 158.266 286.851 158.313 287.124L157.533 287.304C157.513 287.131 157.463 286.964 157.383 286.804C157.31 286.638 157.206 286.494 157.073 286.374C156.946 286.248 156.79 286.148 156.603 286.074C156.416 286.001 156.2 285.964 155.953 285.964C155.713 285.964 155.486 286.011 155.273 286.104C155.066 286.191 154.883 286.318 154.723 286.484C154.563 286.644 154.436 286.838 154.343 287.064C154.256 287.291 154.213 287.538 154.213 287.804V287.924C154.213 288.204 154.256 288.458 154.343 288.684C154.436 288.904 154.563 289.091 154.723 289.244C154.883 289.398 155.07 289.518 155.283 289.604C155.496 289.684 155.726 289.724 155.973 289.724C156.22 289.724 156.433 289.688 156.613 289.614C156.8 289.534 156.956 289.434 157.083 289.314C157.216 289.188 157.32 289.044 157.393 288.884C157.473 288.724 157.526 288.558 157.553 288.384L158.333 288.564ZM161.517 288.084C161.537 288.578 161.69 288.974 161.977 289.274C162.263 289.574 162.663 289.724 163.177 289.724C163.41 289.724 163.613 289.698 163.787 289.644C163.96 289.591 164.107 289.518 164.227 289.424C164.353 289.331 164.453 289.224 164.527 289.104C164.607 288.978 164.67 288.844 164.717 288.704L165.457 288.904C165.317 289.364 165.057 289.741 164.677 290.034C164.303 290.321 163.797 290.464 163.157 290.464C162.803 290.464 162.477 290.404 162.177 290.284C161.883 290.158 161.63 289.981 161.417 289.754C161.203 289.528 161.037 289.258 160.917 288.944C160.797 288.631 160.737 288.284 160.737 287.904V287.664C160.737 287.318 160.797 286.994 160.917 286.694C161.043 286.394 161.217 286.138 161.437 285.924C161.657 285.704 161.913 285.534 162.207 285.414C162.507 285.288 162.83 285.224 163.177 285.224C163.583 285.224 163.933 285.301 164.227 285.454C164.527 285.601 164.77 285.784 164.957 286.004C165.15 286.224 165.29 286.464 165.377 286.724C165.47 286.984 165.517 287.224 165.517 287.444V288.084H161.517ZM163.177 285.964C162.957 285.964 162.75 286.001 162.557 286.074C162.37 286.141 162.203 286.238 162.057 286.364C161.917 286.491 161.8 286.641 161.707 286.814C161.62 286.981 161.563 287.164 161.537 287.364H164.737C164.723 287.151 164.67 286.958 164.577 286.784C164.49 286.611 164.373 286.464 164.227 286.344C164.087 286.224 163.923 286.131 163.737 286.064C163.557 285.998 163.37 285.964 163.177 285.964ZM167.92 285.364H169.72V286.024H169.84C169.967 285.751 170.147 285.551 170.38 285.424C170.613 285.291 170.88 285.224 171.18 285.224C171.68 285.224 172.083 285.388 172.39 285.714C172.697 286.041 172.86 286.518 172.88 287.144L172.06 287.264C172.06 286.804 171.95 286.474 171.73 286.274C171.51 286.068 171.24 285.964 170.92 285.964C170.713 285.964 170.533 286.004 170.38 286.084C170.233 286.164 170.11 286.274 170.01 286.414C169.91 286.554 169.837 286.718 169.79 286.904C169.743 287.091 169.72 287.291 169.72 287.504V289.604H170.98V290.324H167.8V289.604H168.94V286.084H167.92V285.364Z" fill="white"/>
<path d="M122.76 304.804C122.76 305.676 122.524 306.344 122.052 306.808C121.58 307.264 120.932 307.492 120.108 307.492C119.684 307.492 119.3 307.436 118.956 307.324C118.612 307.204 118.316 307.032 118.068 306.808C117.82 306.576 117.628 306.296 117.492 305.968C117.356 305.632 117.288 305.244 117.288 304.804V304.012H118.872V304.804C118.872 305.18 118.976 305.476 119.184 305.692C119.392 305.9 119.684 306.004 120.06 306.004C120.412 306.004 120.684 305.9 120.876 305.692C121.076 305.484 121.176 305.188 121.176 304.804V300.412H120.312V298.924H123.48V300.412H122.76V304.804ZM129.692 306.46C129.532 306.836 129.308 307.104 129.02 307.264C128.732 307.416 128.396 307.492 128.012 307.492C127.652 307.492 127.312 307.424 126.992 307.288C126.68 307.152 126.404 306.952 126.164 306.688C125.924 306.424 125.732 306.104 125.588 305.728C125.452 305.352 125.384 304.924 125.384 304.444V304.252C125.384 303.78 125.452 303.356 125.588 302.98C125.724 302.604 125.908 302.284 126.14 302.02C126.372 301.756 126.64 301.556 126.944 301.42C127.256 301.276 127.588 301.204 127.94 301.204C128.364 301.204 128.704 301.276 128.96 301.42C129.224 301.564 129.432 301.788 129.584 302.092H129.8V301.372H131.312V305.524C131.312 305.764 131.42 305.884 131.636 305.884H131.864V307.324H130.832C130.56 307.324 130.336 307.244 130.16 307.084C129.992 306.924 129.908 306.716 129.908 306.46H129.692ZM128.348 306.052C128.788 306.052 129.14 305.908 129.404 305.62C129.668 305.324 129.8 304.924 129.8 304.42V304.276C129.8 303.772 129.668 303.376 129.404 303.088C129.14 302.792 128.788 302.644 128.348 302.644C127.908 302.644 127.556 302.792 127.292 303.088C127.028 303.376 126.896 303.772 126.896 304.276V304.42C126.896 304.924 127.028 305.324 127.292 305.62C127.556 305.908 127.908 306.052 128.348 306.052ZM140.164 307.324H138.652V303.148C138.652 302.98 138.608 302.856 138.52 302.776C138.44 302.688 138.332 302.644 138.196 302.644C138.036 302.644 137.908 302.692 137.812 302.788C137.724 302.884 137.68 303.028 137.68 303.22V307.324H136.168V303.148C136.168 302.98 136.12 302.856 136.024 302.776C135.936 302.688 135.828 302.644 135.7 302.644C135.556 302.644 135.436 302.692 135.34 302.788C135.244 302.884 135.196 303.028 135.196 303.22V307.324H133.684V301.372H135.196V301.948H135.412C135.46 301.732 135.568 301.556 135.736 301.42C135.912 301.276 136.14 301.204 136.42 301.204C136.684 301.204 136.908 301.276 137.092 301.42C137.276 301.556 137.4 301.732 137.464 301.948H137.68C137.744 301.732 137.876 301.556 138.076 301.42C138.284 301.276 138.54 301.204 138.844 301.204C139.244 301.204 139.564 301.34 139.804 301.612C140.044 301.876 140.164 302.244 140.164 302.716V307.324ZM142.643 305.884H144.659V302.812H142.787V301.372H146.171V305.884H147.899V307.324H142.643V305.884ZM146.543 299.608C146.543 299.768 146.511 299.92 146.447 300.064C146.391 300.2 146.311 300.32 146.207 300.424C146.103 300.52 145.979 300.6 145.835 300.664C145.699 300.72 145.555 300.748 145.403 300.748C145.243 300.748 145.095 300.72 144.959 300.664C144.823 300.6 144.703 300.52 144.599 300.424C144.495 300.32 144.411 300.2 144.347 300.064C144.291 299.92 144.263 299.768 144.263 299.608C144.263 299.448 144.291 299.3 144.347 299.164C144.411 299.02 144.495 298.9 144.599 298.804C144.703 298.7 144.823 298.62 144.959 298.564C145.095 298.5 145.243 298.468 145.403 298.468C145.555 298.468 145.699 298.5 145.835 298.564C145.979 298.62 146.103 298.7 146.207 298.804C146.311 298.9 146.391 299.02 146.447 299.164C146.511 299.3 146.543 299.448 146.543 299.608ZM152.215 304.84C152.223 305.016 152.263 305.18 152.335 305.332C152.415 305.476 152.519 305.604 152.647 305.716C152.783 305.82 152.935 305.904 153.103 305.968C153.279 306.024 153.463 306.052 153.655 306.052C154.031 306.052 154.319 305.988 154.519 305.86C154.719 305.724 154.863 305.564 154.951 305.38L156.247 306.1C156.175 306.252 156.075 306.412 155.947 306.58C155.819 306.74 155.651 306.888 155.443 307.024C155.243 307.16 154.995 307.272 154.699 307.36C154.411 307.448 154.071 307.492 153.679 307.492C153.231 307.492 152.823 307.42 152.455 307.276C152.087 307.132 151.767 306.924 151.495 306.652C151.231 306.38 151.023 306.048 150.871 305.656C150.727 305.264 150.655 304.82 150.655 304.324V304.252C150.655 303.796 150.731 303.38 150.883 303.004C151.043 302.628 151.259 302.308 151.531 302.044C151.803 301.78 152.119 301.576 152.479 301.432C152.847 301.28 153.239 301.204 153.655 301.204C154.167 301.204 154.607 301.296 154.975 301.48C155.343 301.656 155.647 301.884 155.887 302.164C156.127 302.436 156.303 302.74 156.415 303.076C156.527 303.404 156.583 303.724 156.583 304.036V304.84H152.215ZM153.643 302.572C153.259 302.572 152.947 302.672 152.707 302.872C152.467 303.064 152.311 303.288 152.239 303.544H155.047C154.999 303.264 154.847 303.032 154.591 302.848C154.343 302.664 154.027 302.572 153.643 302.572ZM166.906 298.924H169.69L170.17 305.236V306.46H170.458V305.236L170.938 298.924H173.722V307.324H172.282V301.708L172.426 299.788H172.138L171.514 307.324H169.138L168.49 299.788H168.202L168.346 301.708V307.324H166.906V298.924ZM177.258 304.84C177.266 305.016 177.306 305.18 177.378 305.332C177.458 305.476 177.562 305.604 177.69 305.716C177.826 305.82 177.978 305.904 178.146 305.968C178.322 306.024 178.506 306.052 178.698 306.052C179.074 306.052 179.362 305.988 179.562 305.86C179.762 305.724 179.906 305.564 179.994 305.38L181.29 306.1C181.218 306.252 181.118 306.412 180.99 306.58C180.862 306.74 180.694 306.888 180.486 307.024C180.286 307.16 180.038 307.272 179.742 307.36C179.454 307.448 179.114 307.492 178.722 307.492C178.274 307.492 177.866 307.42 177.498 307.276C177.13 307.132 176.81 306.924 176.538 306.652C176.274 306.38 176.066 306.048 175.914 305.656C175.77 305.264 175.698 304.82 175.698 304.324V304.252C175.698 303.796 175.774 303.38 175.926 303.004C176.086 302.628 176.302 302.308 176.574 302.044C176.846 301.78 177.162 301.576 177.522 301.432C177.89 301.28 178.282 301.204 178.698 301.204C179.21 301.204 179.65 301.296 180.018 301.48C180.386 301.656 180.69 301.884 180.93 302.164C181.17 302.436 181.346 302.74 181.458 303.076C181.57 303.404 181.626 303.724 181.626 304.036V304.84H177.258ZM178.686 302.572C178.302 302.572 177.99 302.672 177.75 302.872C177.51 303.064 177.354 303.288 177.282 303.544H180.09C180.042 303.264 179.89 303.032 179.634 302.848C179.386 302.664 179.07 302.572 178.686 302.572ZM188.306 301.372H189.818V308.788C189.818 309.06 189.73 309.284 189.554 309.46C189.386 309.636 189.166 309.724 188.894 309.724H185.354V308.284H187.982C188.198 308.284 188.306 308.164 188.306 307.924V306.46H188.09C187.826 307.148 187.258 307.492 186.386 307.492C186.09 307.492 185.814 307.444 185.558 307.348C185.302 307.252 185.078 307.104 184.886 306.904C184.694 306.704 184.542 306.456 184.43 306.16C184.326 305.856 184.274 305.5 184.274 305.092V301.372H185.786V304.78C185.786 305.204 185.886 305.536 186.086 305.776C186.286 306.008 186.586 306.124 186.986 306.124C187.442 306.124 187.774 305.98 187.982 305.692C188.198 305.396 188.306 304.996 188.306 304.492V301.372ZM193.953 304.84C193.961 305.016 194.001 305.18 194.073 305.332C194.153 305.476 194.257 305.604 194.385 305.716C194.521 305.82 194.673 305.904 194.841 305.968C195.017 306.024 195.201 306.052 195.393 306.052C195.769 306.052 196.057 305.988 196.257 305.86C196.457 305.724 196.601 305.564 196.689 305.38L197.985 306.1C197.913 306.252 197.813 306.412 197.685 306.58C197.557 306.74 197.389 306.888 197.181 307.024C196.981 307.16 196.733 307.272 196.437 307.36C196.149 307.448 195.809 307.492 195.417 307.492C194.969 307.492 194.561 307.42 194.193 307.276C193.825 307.132 193.505 306.924 193.233 306.652C192.969 306.38 192.761 306.048 192.609 305.656C192.465 305.264 192.393 304.82 192.393 304.324V304.252C192.393 303.796 192.469 303.38 192.621 303.004C192.781 302.628 192.997 302.308 193.269 302.044C193.541 301.78 193.857 301.576 194.217 301.432C194.585 301.28 194.977 301.204 195.393 301.204C195.905 301.204 196.345 301.296 196.713 301.48C197.081 301.656 197.385 301.884 197.625 302.164C197.865 302.436 198.041 302.74 198.153 303.076C198.265 303.404 198.321 303.724 198.321 304.036V304.84H193.953ZM195.381 302.572C194.997 302.572 194.685 302.672 194.445 302.872C194.205 303.064 194.049 303.288 193.977 303.544H196.785C196.737 303.264 196.585 303.032 196.329 302.848C196.081 302.664 195.765 302.572 195.381 302.572ZM200.681 301.372H203.201V302.236H203.417C203.529 301.908 203.717 301.656 203.981 301.48C204.253 301.296 204.577 301.204 204.953 301.204C205.545 301.204 206.021 301.392 206.381 301.768C206.741 302.136 206.921 302.7 206.921 303.46V303.724L205.361 303.868V303.7C205.361 303.372 205.277 303.112 205.109 302.92C204.941 302.72 204.689 302.62 204.353 302.62C204.017 302.62 203.753 302.736 203.561 302.968C203.369 303.2 203.273 303.532 203.273 303.964V305.884H204.641V307.324H200.537V305.884H201.761V302.812H200.681V301.372ZM210.913 306.352C210.913 306.2 210.941 306.056 210.997 305.92C211.061 305.776 211.145 305.656 211.249 305.56C211.353 305.456 211.473 305.376 211.609 305.32C211.745 305.256 211.893 305.224 212.053 305.224C212.205 305.224 212.349 305.256 212.485 305.32C212.629 305.376 212.753 305.456 212.857 305.56C212.961 305.656 213.041 305.776 213.097 305.92C213.161 306.056 213.193 306.2 213.193 306.352V307.816C213.193 308.12 213.089 308.376 212.881 308.584C212.681 308.792 212.429 308.896 212.125 308.896H211.357V307.96H211.933C212.149 307.96 212.257 307.84 212.257 307.6V307.456C212.193 307.48 212.125 307.492 212.053 307.492C211.893 307.492 211.745 307.46 211.609 307.396C211.473 307.34 211.353 307.26 211.249 307.156C211.145 307.052 211.061 306.932 210.997 306.796C210.941 306.66 210.913 306.512 210.913 306.352ZM226.06 298.924H227.644V305.812H231.46V307.324H226.06V298.924ZM234.408 298.924H235.992V305.812H239.808V307.324H234.408V298.924ZM245.467 306.052C245.771 306.052 246.019 306.008 246.211 305.92C246.411 305.824 246.563 305.7 246.667 305.548C246.779 305.388 246.855 305.208 246.895 305.008C246.935 304.8 246.955 304.588 246.955 304.372V304.156H248.539V304.372C248.539 305.372 248.275 306.144 247.747 306.688C247.227 307.224 246.467 307.492 245.467 307.492C244.507 307.492 243.747 307.2 243.187 306.616C242.627 306.032 242.347 305.18 242.347 304.06V302.188C242.347 301.652 242.419 301.172 242.563 300.748C242.707 300.316 242.915 299.956 243.187 299.668C243.459 299.372 243.787 299.148 244.171 298.996C244.555 298.836 244.987 298.756 245.467 298.756C245.963 298.756 246.403 298.828 246.787 298.972C247.171 299.116 247.491 299.324 247.747 299.596C248.011 299.868 248.207 300.196 248.335 300.58C248.471 300.964 248.539 301.396 248.539 301.876V302.092H246.955V301.876C246.955 301.676 246.931 301.476 246.883 301.276C246.835 301.076 246.755 300.896 246.643 300.736C246.531 300.576 246.379 300.448 246.187 300.352C245.995 300.248 245.755 300.196 245.467 300.196C245.203 300.196 244.975 300.248 244.783 300.352C244.591 300.448 244.431 300.584 244.303 300.76C244.175 300.928 244.079 301.128 244.015 301.36C243.959 301.584 243.931 301.82 243.931 302.068V304.18C243.931 304.452 243.959 304.704 244.015 304.936C244.071 305.16 244.159 305.356 244.279 305.524C244.399 305.692 244.555 305.824 244.747 305.92C244.947 306.008 245.187 306.052 245.467 306.052Z" fill="white"/>
<path d="M118.926 319.844V318.684L121.206 317.224V317.104H117.246V316.324H121.926V317.604L119.646 319.064V319.184H120.046C120.313 319.184 120.57 319.228 120.816 319.314C121.063 319.401 121.28 319.528 121.466 319.694C121.66 319.861 121.813 320.068 121.926 320.314C122.046 320.554 122.106 320.834 122.106 321.154V321.334C122.106 321.634 122.046 321.914 121.926 322.174C121.806 322.434 121.64 322.661 121.426 322.854C121.213 323.041 120.96 323.191 120.666 323.304C120.38 323.411 120.066 323.464 119.726 323.464C119.333 323.464 118.98 323.404 118.666 323.284C118.353 323.164 118.086 323.001 117.866 322.794C117.646 322.581 117.476 322.334 117.356 322.054C117.243 321.768 117.186 321.464 117.186 321.144V320.604H118.026V321.084C118.026 321.338 118.066 321.564 118.146 321.764C118.233 321.958 118.35 322.124 118.496 322.264C118.65 322.398 118.83 322.501 119.036 322.574C119.243 322.648 119.466 322.684 119.706 322.684C119.926 322.684 120.13 322.648 120.316 322.574C120.51 322.501 120.676 322.401 120.816 322.274C120.956 322.141 121.066 321.988 121.146 321.814C121.226 321.634 121.266 321.444 121.266 321.244V321.184C121.266 320.764 121.133 320.438 120.866 320.204C120.6 319.964 120.266 319.844 119.866 319.844H118.926ZM124.279 319.044C124.279 318.138 124.496 317.434 124.929 316.934C125.363 316.434 125.966 316.184 126.739 316.184C127.513 316.184 128.116 316.434 128.549 316.934C128.983 317.434 129.199 318.138 129.199 319.044V320.604C129.199 321.538 128.983 322.248 128.549 322.734C128.116 323.221 127.513 323.464 126.739 323.464C125.966 323.464 125.363 323.221 124.929 322.734C124.496 322.248 124.279 321.538 124.279 320.604V319.044ZM126.739 322.704C127.279 322.704 127.683 322.518 127.949 322.144C128.223 321.764 128.359 321.231 128.359 320.544V319.104C128.359 318.784 128.326 318.494 128.259 318.234C128.193 317.968 128.089 317.741 127.949 317.554C127.816 317.361 127.646 317.211 127.439 317.104C127.239 316.998 127.006 316.944 126.739 316.944C126.466 316.944 126.229 316.998 126.029 317.104C125.829 317.211 125.659 317.361 125.519 317.554C125.386 317.741 125.286 317.968 125.219 318.234C125.153 318.494 125.119 318.784 125.119 319.104V320.544C125.119 321.231 125.253 321.764 125.519 322.144C125.793 322.518 126.199 322.704 126.739 322.704ZM126.099 319.824C126.099 319.651 126.163 319.501 126.289 319.374C126.416 319.248 126.566 319.184 126.739 319.184C126.913 319.184 127.063 319.248 127.189 319.374C127.316 319.501 127.379 319.651 127.379 319.824C127.379 319.998 127.316 320.148 127.189 320.274C127.063 320.401 126.913 320.464 126.739 320.464C126.566 320.464 126.416 320.401 126.289 320.274C126.163 320.148 126.099 319.998 126.099 319.824ZM131.402 319.044C131.402 318.138 131.619 317.434 132.052 316.934C132.486 316.434 133.089 316.184 133.862 316.184C134.636 316.184 135.239 316.434 135.672 316.934C136.106 317.434 136.322 318.138 136.322 319.044V320.604C136.322 321.538 136.106 322.248 135.672 322.734C135.239 323.221 134.636 323.464 133.862 323.464C133.089 323.464 132.486 323.221 132.052 322.734C131.619 322.248 131.402 321.538 131.402 320.604V319.044ZM133.862 322.704C134.402 322.704 134.806 322.518 135.072 322.144C135.346 321.764 135.482 321.231 135.482 320.544V319.104C135.482 318.784 135.449 318.494 135.382 318.234C135.316 317.968 135.212 317.741 135.072 317.554C134.939 317.361 134.769 317.211 134.562 317.104C134.362 316.998 134.129 316.944 133.862 316.944C133.589 316.944 133.352 316.998 133.152 317.104C132.952 317.211 132.782 317.361 132.642 317.554C132.509 317.741 132.409 317.968 132.342 318.234C132.276 318.494 132.242 318.784 132.242 319.104V320.544C132.242 321.231 132.376 321.764 132.642 322.144C132.916 322.518 133.322 322.704 133.862 322.704ZM133.222 319.824C133.222 319.651 133.286 319.501 133.412 319.374C133.539 319.248 133.689 319.184 133.862 319.184C134.036 319.184 134.186 319.248 134.312 319.374C134.439 319.501 134.502 319.651 134.502 319.824C134.502 319.998 134.439 320.148 134.312 320.274C134.186 320.401 134.036 320.464 133.862 320.464C133.689 320.464 133.539 320.401 133.412 320.274C133.286 320.148 133.222 319.998 133.222 319.824ZM145.509 316.324H147.109L148.049 322.964H148.169L149.109 316.324H150.709V323.324H149.929V316.684H149.809L148.869 323.324H147.349L146.409 316.684H146.289V323.324H145.509V316.324ZM154.582 316.884C154.582 316.691 154.648 316.528 154.782 316.394C154.922 316.254 155.088 316.184 155.282 316.184C155.475 316.184 155.638 316.254 155.772 316.394C155.912 316.528 155.982 316.691 155.982 316.884C155.982 317.078 155.912 317.244 155.772 317.384C155.638 317.518 155.475 317.584 155.282 317.584C155.088 317.584 154.922 317.518 154.782 317.384C154.648 317.244 154.582 317.078 154.582 316.884ZM153.162 322.604H154.902V319.084H153.342V318.364H155.682V322.604H157.302V323.324H153.162V322.604ZM161.195 319.644C161.195 319.884 161.295 320.068 161.495 320.194C161.701 320.321 162.075 320.404 162.615 320.444C163.195 320.491 163.635 320.631 163.935 320.864C164.241 321.091 164.395 321.424 164.395 321.864V321.924C164.395 322.164 164.345 322.381 164.245 322.574C164.151 322.761 164.018 322.921 163.845 323.054C163.678 323.188 163.471 323.288 163.225 323.354C162.985 323.428 162.721 323.464 162.435 323.464C162.048 323.464 161.715 323.414 161.435 323.314C161.161 323.208 160.931 323.071 160.745 322.904C160.565 322.731 160.428 322.538 160.335 322.324C160.241 322.104 160.188 321.884 160.175 321.664L160.915 321.484C160.948 321.864 161.095 322.171 161.355 322.404C161.615 322.631 161.961 322.744 162.395 322.744C162.761 322.744 163.055 322.674 163.275 322.534C163.501 322.388 163.615 322.184 163.615 321.924C163.615 321.644 163.505 321.444 163.285 321.324C163.065 321.204 162.708 321.128 162.215 321.094C161.641 321.054 161.201 320.921 160.895 320.694C160.588 320.468 160.435 320.138 160.435 319.704V319.644C160.435 319.411 160.485 319.208 160.585 319.034C160.685 318.854 160.818 318.704 160.985 318.584C161.158 318.464 161.351 318.374 161.565 318.314C161.778 318.254 162.001 318.224 162.235 318.224C162.561 318.224 162.848 318.271 163.095 318.364C163.341 318.451 163.548 318.568 163.715 318.714C163.881 318.854 164.008 319.018 164.095 319.204C164.188 319.391 164.248 319.578 164.275 319.764L163.535 319.944C163.501 319.624 163.371 319.374 163.145 319.194C162.925 319.014 162.635 318.924 162.275 318.924C162.135 318.924 161.998 318.941 161.865 318.974C161.738 319.001 161.625 319.044 161.525 319.104C161.425 319.164 161.345 319.241 161.285 319.334C161.225 319.421 161.195 319.524 161.195 319.644ZM168.318 319.644C168.318 319.884 168.418 320.068 168.618 320.194C168.824 320.321 169.198 320.404 169.738 320.444C170.318 320.491 170.758 320.631 171.058 320.864C171.364 321.091 171.518 321.424 171.518 321.864V321.924C171.518 322.164 171.468 322.381 171.368 322.574C171.274 322.761 171.141 322.921 170.968 323.054C170.801 323.188 170.594 323.288 170.348 323.354C170.108 323.428 169.844 323.464 169.558 323.464C169.171 323.464 168.838 323.414 168.558 323.314C168.284 323.208 168.054 323.071 167.868 322.904C167.688 322.731 167.551 322.538 167.458 322.324C167.364 322.104 167.311 321.884 167.298 321.664L168.038 321.484C168.071 321.864 168.218 322.171 168.478 322.404C168.738 322.631 169.084 322.744 169.518 322.744C169.884 322.744 170.178 322.674 170.398 322.534C170.624 322.388 170.738 322.184 170.738 321.924C170.738 321.644 170.628 321.444 170.408 321.324C170.188 321.204 169.831 321.128 169.338 321.094C168.764 321.054 168.324 320.921 168.018 320.694C167.711 320.468 167.558 320.138 167.558 319.704V319.644C167.558 319.411 167.608 319.208 167.708 319.034C167.808 318.854 167.941 318.704 168.108 318.584C168.281 318.464 168.474 318.374 168.688 318.314C168.901 318.254 169.124 318.224 169.358 318.224C169.684 318.224 169.971 318.271 170.218 318.364C170.464 318.451 170.671 318.568 170.838 318.714C171.004 318.854 171.131 319.018 171.218 319.204C171.311 319.391 171.371 319.578 171.398 319.764L170.658 319.944C170.624 319.624 170.494 319.374 170.268 319.194C170.048 319.014 169.758 318.924 169.398 318.924C169.258 318.924 169.121 318.941 168.988 318.974C168.861 319.001 168.748 319.044 168.648 319.104C168.548 319.164 168.468 319.241 168.408 319.334C168.348 319.421 168.318 319.524 168.318 319.644ZM175.951 316.884C175.951 316.691 176.017 316.528 176.151 316.394C176.291 316.254 176.457 316.184 176.651 316.184C176.844 316.184 177.007 316.254 177.141 316.394C177.281 316.528 177.351 316.691 177.351 316.884C177.351 317.078 177.281 317.244 177.141 317.384C177.007 317.518 176.844 317.584 176.651 317.584C176.457 317.584 176.291 317.518 176.151 317.384C176.017 317.244 175.951 317.078 175.951 316.884ZM174.531 322.604H176.271V319.084H174.711V318.364H177.051V322.604H178.671V323.324H174.531V322.604ZM186.214 320.904C186.214 321.318 186.144 321.684 186.004 322.004C185.87 322.318 185.69 322.584 185.464 322.804C185.237 323.018 184.97 323.181 184.664 323.294C184.364 323.408 184.05 323.464 183.724 323.464C183.39 323.464 183.074 323.408 182.774 323.294C182.474 323.181 182.21 323.018 181.984 322.804C181.757 322.584 181.574 322.318 181.434 322.004C181.3 321.684 181.234 321.318 181.234 320.904V320.784C181.234 320.378 181.3 320.018 181.434 319.704C181.574 319.384 181.757 319.114 181.984 318.894C182.217 318.674 182.484 318.508 182.784 318.394C183.084 318.281 183.397 318.224 183.724 318.224C184.05 318.224 184.364 318.281 184.664 318.394C184.964 318.508 185.227 318.674 185.454 318.894C185.687 319.114 185.87 319.384 186.004 319.704C186.144 320.018 186.214 320.378 186.214 320.784V320.904ZM183.724 322.724C183.964 322.724 184.184 322.684 184.384 322.604C184.59 322.518 184.77 322.394 184.924 322.234C185.077 322.074 185.197 321.884 185.284 321.664C185.37 321.438 185.414 321.184 185.414 320.904V320.784C185.414 320.518 185.37 320.274 185.284 320.054C185.197 319.828 185.077 319.634 184.924 319.474C184.77 319.314 184.59 319.191 184.384 319.104C184.177 319.011 183.957 318.964 183.724 318.964C183.49 318.964 183.27 319.011 183.064 319.104C182.857 319.191 182.677 319.314 182.524 319.474C182.37 319.634 182.25 319.828 182.164 320.054C182.077 320.274 182.034 320.518 182.034 320.784V320.904C182.034 321.184 182.077 321.438 182.164 321.664C182.25 321.884 182.37 322.074 182.524 322.234C182.677 322.394 182.854 322.518 183.054 322.604C183.26 322.684 183.484 322.724 183.724 322.724ZM189.437 323.324H188.657V318.364H189.437V319.204H189.557C189.864 318.551 190.397 318.224 191.157 318.224C191.73 318.224 192.187 318.404 192.527 318.764C192.867 319.118 193.037 319.651 193.037 320.364V323.324H192.257V320.524C192.257 320.004 192.14 319.614 191.907 319.354C191.674 319.094 191.357 318.964 190.957 318.964C190.484 318.964 190.11 319.128 189.837 319.454C189.57 319.774 189.437 320.204 189.437 320.744V323.324ZM206.743 318.344C206.743 318.118 206.696 317.918 206.603 317.744C206.516 317.571 206.396 317.428 206.243 317.314C206.09 317.201 205.913 317.114 205.713 317.054C205.513 316.994 205.303 316.964 205.083 316.964C204.89 316.964 204.706 316.991 204.533 317.044C204.36 317.091 204.203 317.161 204.063 317.254C203.93 317.348 203.823 317.464 203.743 317.604C203.663 317.738 203.623 317.894 203.623 318.074V318.134C203.623 318.328 203.663 318.494 203.743 318.634C203.823 318.768 203.94 318.884 204.093 318.984C204.253 319.078 204.45 319.158 204.683 319.224C204.916 319.284 205.19 319.338 205.503 319.384C206.236 319.498 206.776 319.714 207.123 320.034C207.47 320.348 207.643 320.771 207.643 321.304V321.424C207.643 321.724 207.59 322.001 207.483 322.254C207.383 322.501 207.23 322.714 207.023 322.894C206.823 323.074 206.573 323.214 206.273 323.314C205.973 323.414 205.626 323.464 205.233 323.464C204.786 323.464 204.39 323.401 204.043 323.274C203.703 323.141 203.416 322.961 203.183 322.734C202.956 322.501 202.783 322.231 202.663 321.924C202.543 321.611 202.483 321.271 202.483 320.904V320.604H203.323V320.844C203.323 321.458 203.49 321.918 203.823 322.224C204.163 322.531 204.633 322.684 205.233 322.684C205.753 322.684 206.143 322.571 206.403 322.344C206.67 322.111 206.803 321.804 206.803 321.424V321.364C206.803 320.998 206.666 320.718 206.393 320.524C206.126 320.331 205.69 320.191 205.083 320.104C204.73 320.058 204.41 319.988 204.123 319.894C203.843 319.794 203.603 319.668 203.403 319.514C203.203 319.354 203.05 319.164 202.943 318.944C202.836 318.724 202.783 318.464 202.783 318.164V318.044C202.783 317.771 202.84 317.521 202.953 317.294C203.066 317.068 203.223 316.871 203.423 316.704C203.63 316.538 203.873 316.411 204.153 316.324C204.44 316.231 204.753 316.184 205.093 316.184C205.486 316.184 205.836 316.241 206.143 316.354C206.456 316.468 206.72 316.621 206.933 316.814C207.146 317.001 207.306 317.224 207.413 317.484C207.526 317.738 207.583 318.004 207.583 318.284V318.704H206.743V318.344ZM209.856 318.364H211.416V316.324H212.196V318.364H214.116V319.084H212.196V322.304C212.196 322.504 212.286 322.604 212.466 322.604H213.876V323.324H212.186C211.959 323.324 211.773 323.251 211.626 323.104C211.486 322.958 211.416 322.771 211.416 322.544V319.084H209.856V318.364ZM218.639 322.764C218.639 322.571 218.706 322.408 218.839 322.274C218.979 322.134 219.146 322.064 219.339 322.064C219.532 322.064 219.696 322.134 219.829 322.274C219.969 322.408 220.039 322.571 220.039 322.764C220.039 322.958 219.969 323.124 219.829 323.264C219.696 323.398 219.532 323.464 219.339 323.464C219.146 323.464 218.979 323.398 218.839 323.264C218.706 323.124 218.639 322.958 218.639 322.764Z" fill="white"/>
<rect x="40.4436" y="113.093" width="201" height="69" rx="12" fill="#F89C2A"/>
<path d="M67.5436 133.453C67.8303 133.453 68.0736 133.406 68.2736 133.313C68.4803 133.213 68.6469 133.083 68.7736 132.923C68.9069 132.756 69.0036 132.569 69.0636 132.363C69.1303 132.149 69.1636 131.926 69.1636 131.693V131.573H70.0036V131.693C70.0036 132.046 69.9503 132.379 69.8436 132.693C69.7369 132.999 69.5803 133.269 69.3736 133.503C69.1669 133.729 68.9103 133.909 68.6036 134.043C68.2969 134.169 67.9436 134.233 67.5436 134.233C66.7703 134.233 66.1669 133.989 65.7336 133.503C65.3003 133.016 65.0836 132.306 65.0836 131.373V129.813C65.0836 128.906 65.3003 128.203 65.7336 127.703C66.1669 127.203 66.7703 126.953 67.5436 126.953C67.9436 126.953 68.2969 127.019 68.6036 127.153C68.9103 127.279 69.1669 127.459 69.3736 127.693C69.5803 127.919 69.7369 128.189 69.8436 128.503C69.9503 128.809 70.0036 129.139 70.0036 129.493V129.613H69.1636V129.493C69.1569 129.266 69.1203 129.046 69.0536 128.833C68.9936 128.619 68.8969 128.433 68.7636 128.273C68.6369 128.106 68.4736 127.976 68.2736 127.883C68.0736 127.783 67.8303 127.733 67.5436 127.733C67.0036 127.733 66.5969 127.929 66.3236 128.323C66.0569 128.716 65.9236 129.233 65.9236 129.873V131.313C65.9236 131.999 66.0569 132.529 66.3236 132.903C66.5969 133.269 67.0036 133.453 67.5436 133.453ZM76.167 133.253H76.047C75.887 133.586 75.6636 133.833 75.377 133.993C75.097 134.153 74.8003 134.233 74.487 134.233C74.1603 134.233 73.857 134.179 73.577 134.073C73.297 133.959 73.0503 133.796 72.837 133.583C72.6303 133.363 72.467 133.096 72.347 132.783C72.227 132.469 72.167 132.106 72.167 131.693V131.533C72.167 131.126 72.227 130.766 72.347 130.453C72.467 130.139 72.6303 129.876 72.837 129.663C73.0503 129.443 73.297 129.276 73.577 129.163C73.857 129.049 74.1536 128.993 74.467 128.993C74.807 128.993 75.1136 129.069 75.387 129.223C75.667 129.369 75.887 129.599 76.047 129.913H76.167V129.133H76.947V133.073C76.947 133.273 77.037 133.373 77.217 133.373H77.467V134.093H76.937C76.7103 134.093 76.5236 134.019 76.377 133.873C76.237 133.726 76.167 133.539 76.167 133.313V133.253ZM74.567 133.493C74.8003 133.493 75.0136 133.449 75.207 133.363C75.407 133.276 75.577 133.153 75.717 132.993C75.857 132.833 75.967 132.643 76.047 132.423C76.127 132.196 76.167 131.946 76.167 131.673V131.553C76.167 131.286 76.127 131.043 76.047 130.823C75.967 130.596 75.8536 130.403 75.707 130.243C75.567 130.083 75.397 129.959 75.197 129.873C75.0036 129.779 74.7936 129.733 74.567 129.733C74.3336 129.733 74.1203 129.776 73.927 129.863C73.7336 129.949 73.5636 130.073 73.417 130.233C73.277 130.386 73.167 130.576 73.087 130.803C73.007 131.023 72.967 131.266 72.967 131.533V131.693C72.967 132.259 73.1136 132.703 73.407 133.023C73.707 133.336 74.0936 133.493 74.567 133.493ZM79.5403 129.133H81.3403V129.793H81.4603C81.587 129.519 81.767 129.319 82.0003 129.193C82.2336 129.059 82.5003 128.993 82.8003 128.993C83.3003 128.993 83.7036 129.156 84.0103 129.483C84.317 129.809 84.4803 130.286 84.5003 130.913L83.6803 131.033C83.6803 130.573 83.5703 130.243 83.3503 130.043C83.1303 129.836 82.8603 129.733 82.5403 129.733C82.3336 129.733 82.1536 129.773 82.0003 129.853C81.8536 129.933 81.7303 130.043 81.6303 130.183C81.5303 130.323 81.457 130.486 81.4103 130.673C81.3636 130.859 81.3403 131.059 81.3403 131.273V133.373H82.6003V134.093H79.4203V133.373H80.5603V129.853H79.5403V129.133ZM86.7937 129.133H88.5937V129.793H88.7137C88.8403 129.519 89.0203 129.319 89.2537 129.193C89.487 129.059 89.7537 128.993 90.0537 128.993C90.5537 128.993 90.957 129.156 91.2637 129.483C91.5703 129.809 91.7337 130.286 91.7537 130.913L90.9337 131.033C90.9337 130.573 90.8237 130.243 90.6037 130.043C90.3837 129.836 90.1137 129.733 89.7937 129.733C89.587 129.733 89.407 129.773 89.2537 129.853C89.107 129.933 88.9837 130.043 88.8837 130.183C88.7837 130.323 88.7103 130.486 88.6637 130.673C88.617 130.859 88.5937 131.059 88.5937 131.273V133.373H89.8537V134.093H86.6737V133.373H87.8137V129.853H86.7937V129.133ZM95.867 127.653C95.867 127.459 95.9337 127.296 96.067 127.163C96.207 127.023 96.3737 126.953 96.567 126.953C96.7604 126.953 96.9237 127.023 97.057 127.163C97.197 127.296 97.267 127.459 97.267 127.653C97.267 127.846 97.197 128.013 97.057 128.153C96.9237 128.286 96.7604 128.353 96.567 128.353C96.3737 128.353 96.207 128.286 96.067 128.153C95.9337 128.013 95.867 127.846 95.867 127.653ZM94.447 133.373H96.187V129.853H94.627V129.133H96.967V133.373H98.587V134.093H94.447V133.373ZM102.15 131.853C102.17 132.346 102.324 132.743 102.61 133.043C102.897 133.343 103.297 133.493 103.81 133.493C104.044 133.493 104.247 133.466 104.42 133.413C104.594 133.359 104.74 133.286 104.86 133.193C104.987 133.099 105.087 132.993 105.16 132.873C105.24 132.746 105.304 132.613 105.35 132.473L106.09 132.673C105.95 133.133 105.69 133.509 105.31 133.803C104.937 134.089 104.43 134.233 103.79 134.233C103.437 134.233 103.11 134.173 102.81 134.053C102.517 133.926 102.264 133.749 102.05 133.523C101.837 133.296 101.67 133.026 101.55 132.713C101.43 132.399 101.37 132.053 101.37 131.673V131.433C101.37 131.086 101.43 130.763 101.55 130.463C101.677 130.163 101.85 129.906 102.07 129.693C102.29 129.473 102.547 129.303 102.84 129.183C103.14 129.056 103.464 128.993 103.81 128.993C104.217 128.993 104.567 129.069 104.86 129.223C105.16 129.369 105.404 129.553 105.59 129.773C105.784 129.993 105.924 130.233 106.01 130.493C106.104 130.753 106.15 130.993 106.15 131.213V131.853H102.15ZM103.81 129.733C103.59 129.733 103.384 129.769 103.19 129.843C103.004 129.909 102.837 130.006 102.69 130.133C102.55 130.259 102.434 130.409 102.34 130.583C102.254 130.749 102.197 130.933 102.17 131.133H105.37C105.357 130.919 105.304 130.726 105.21 130.553C105.124 130.379 105.007 130.233 104.86 130.113C104.72 129.993 104.557 129.899 104.37 129.833C104.19 129.766 104.004 129.733 103.81 129.733ZM108.554 129.133H110.354V129.793H110.474C110.6 129.519 110.78 129.319 111.014 129.193C111.247 129.059 111.514 128.993 111.814 128.993C112.314 128.993 112.717 129.156 113.024 129.483C113.33 129.809 113.494 130.286 113.514 130.913L112.694 131.033C112.694 130.573 112.584 130.243 112.364 130.043C112.144 129.836 111.874 129.733 111.554 129.733C111.347 129.733 111.167 129.773 111.014 129.853C110.867 129.933 110.744 130.043 110.644 130.183C110.544 130.323 110.47 130.486 110.424 130.673C110.377 130.859 110.354 131.059 110.354 131.273V133.373H111.614V134.093H108.434V133.373H109.574V129.853H108.554V129.133Z" fill="white"/>
<path d="M64.7076 142.693H67.4916L67.9716 149.005V150.229H68.2596V149.005L68.7396 142.693H71.5236V151.093H70.0836V145.477L70.2276 143.557H69.9396L69.3156 151.093H66.9396L66.2916 143.557H66.0036L66.1476 145.477V151.093H64.7076V142.693ZM73.8353 149.653H75.8513V146.581H73.9793V145.141H77.3633V149.653H79.0913V151.093H73.8353V149.653ZM77.7353 143.377C77.7353 143.537 77.7033 143.689 77.6393 143.833C77.5833 143.969 77.5033 144.089 77.3993 144.193C77.2953 144.289 77.1713 144.369 77.0273 144.433C76.8913 144.489 76.7473 144.517 76.5953 144.517C76.4353 144.517 76.2873 144.489 76.1513 144.433C76.0153 144.369 75.8953 144.289 75.7913 144.193C75.6873 144.089 75.6033 143.969 75.5393 143.833C75.4833 143.689 75.4553 143.537 75.4553 143.377C75.4553 143.217 75.4833 143.069 75.5393 142.933C75.6033 142.789 75.6873 142.669 75.7913 142.573C75.8953 142.469 76.0153 142.389 76.1513 142.333C76.2873 142.269 76.4353 142.237 76.5953 142.237C76.7473 142.237 76.8913 142.269 77.0273 142.333C77.1713 142.389 77.2953 142.469 77.3993 142.573C77.5033 142.669 77.5833 142.789 77.6393 142.933C77.7033 143.069 77.7353 143.217 77.7353 143.377ZM86.3469 150.229H86.1309C86.0669 150.365 85.9869 150.497 85.8909 150.625C85.8029 150.745 85.6829 150.853 85.5309 150.949C85.3869 151.045 85.2109 151.121 85.0029 151.177C84.8029 151.233 84.5589 151.261 84.2709 151.261C83.9029 151.261 83.5589 151.197 83.2389 151.069C82.9269 150.933 82.6509 150.737 82.4109 150.481C82.1789 150.217 81.9949 149.897 81.8589 149.521C81.7309 149.145 81.6669 148.713 81.6669 148.225V148.009C81.6669 147.529 81.7349 147.101 81.8709 146.725C82.0149 146.349 82.2069 146.033 82.4469 145.777C82.6949 145.513 82.9789 145.313 83.2989 145.177C83.6269 145.041 83.9709 144.973 84.3309 144.973C84.8109 144.973 85.1909 145.065 85.4709 145.249C85.7509 145.425 85.9709 145.677 86.1309 146.005H86.3469V142.693H87.8589V151.093H86.3469V150.229ZM84.7629 149.821C85.2349 149.821 85.6149 149.673 85.9029 149.377C86.1989 149.073 86.3469 148.677 86.3469 148.189V148.045C86.3469 147.557 86.1989 147.165 85.9029 146.869C85.6149 146.565 85.2349 146.413 84.7629 146.413C84.2909 146.413 83.9069 146.561 83.6109 146.857C83.3229 147.145 83.1789 147.541 83.1789 148.045V148.189C83.1789 148.693 83.3229 149.093 83.6109 149.389C83.9069 149.677 84.2909 149.821 84.7629 149.821ZM101.53 149.821C101.834 149.821 102.082 149.777 102.274 149.689C102.474 149.593 102.626 149.469 102.73 149.317C102.842 149.157 102.918 148.977 102.958 148.777C102.998 148.569 103.018 148.357 103.018 148.141V147.925H104.602V148.141C104.602 149.141 104.338 149.913 103.81 150.457C103.29 150.993 102.53 151.261 101.53 151.261C100.57 151.261 99.8102 150.969 99.2502 150.385C98.6902 149.801 98.4102 148.949 98.4102 147.829V145.957C98.4102 145.421 98.4822 144.941 98.6262 144.517C98.7702 144.085 98.9782 143.725 99.2502 143.437C99.5222 143.141 99.8502 142.917 100.234 142.765C100.618 142.605 101.05 142.525 101.53 142.525C102.026 142.525 102.466 142.597 102.85 142.741C103.234 142.885 103.554 143.093 103.81 143.365C104.074 143.637 104.27 143.965 104.398 144.349C104.534 144.733 104.602 145.165 104.602 145.645V145.861H103.018V145.645C103.018 145.445 102.994 145.245 102.946 145.045C102.898 144.845 102.818 144.665 102.706 144.505C102.594 144.345 102.442 144.217 102.25 144.121C102.058 144.017 101.818 143.965 101.53 143.965C101.266 143.965 101.038 144.017 100.846 144.121C100.654 144.217 100.494 144.353 100.366 144.529C100.238 144.697 100.142 144.897 100.078 145.129C100.022 145.353 99.9942 145.589 99.9942 145.837V147.949C99.9942 148.221 100.022 148.473 100.078 148.705C100.134 148.929 100.222 149.125 100.342 149.293C100.462 149.461 100.618 149.593 100.81 149.689C101.01 149.777 101.25 149.821 101.53 149.821ZM108.45 148.609C108.458 148.785 108.498 148.949 108.57 149.101C108.65 149.245 108.754 149.373 108.882 149.485C109.018 149.589 109.17 149.673 109.338 149.737C109.514 149.793 109.698 149.821 109.89 149.821C110.266 149.821 110.554 149.757 110.754 149.629C110.954 149.493 111.098 149.333 111.186 149.149L112.482 149.869C112.41 150.021 112.31 150.181 112.182 150.349C112.054 150.509 111.886 150.657 111.678 150.793C111.478 150.929 111.23 151.041 110.934 151.129C110.646 151.217 110.306 151.261 109.914 151.261C109.466 151.261 109.058 151.189 108.69 151.045C108.322 150.901 108.002 150.693 107.73 150.421C107.466 150.149 107.258 149.817 107.106 149.425C106.962 149.033 106.89 148.589 106.89 148.093V148.021C106.89 147.565 106.966 147.149 107.118 146.773C107.278 146.397 107.494 146.077 107.766 145.813C108.038 145.549 108.354 145.345 108.714 145.201C109.082 145.049 109.474 144.973 109.89 144.973C110.402 144.973 110.842 145.065 111.21 145.249C111.578 145.425 111.882 145.653 112.122 145.933C112.362 146.205 112.538 146.509 112.65 146.845C112.762 147.173 112.818 147.493 112.818 147.805V148.609H108.45ZM109.878 146.341C109.494 146.341 109.182 146.441 108.942 146.641C108.702 146.833 108.546 147.057 108.474 147.313H111.282C111.234 147.033 111.082 146.801 110.826 146.617C110.578 146.433 110.262 146.341 109.878 146.341ZM116.978 151.093H115.466V145.141H116.978V146.029H117.194C117.33 145.693 117.55 145.433 117.854 145.249C118.158 145.065 118.514 144.973 118.922 144.973C119.21 144.973 119.478 145.021 119.726 145.117C119.982 145.205 120.206 145.345 120.398 145.537C120.59 145.729 120.738 145.973 120.842 146.269C120.954 146.565 121.01 146.917 121.01 147.325V151.093H119.498V147.709C119.498 147.285 119.394 146.953 119.186 146.713C118.986 146.465 118.694 146.341 118.31 146.341C117.862 146.341 117.526 146.493 117.302 146.797C117.086 147.093 116.978 147.493 116.978 147.997V151.093ZM123.645 145.141H125.409V142.693H126.921V145.141H129.069V146.581H126.921V149.293C126.921 149.533 127.029 149.653 127.245 149.653H128.853V151.093H126.333C126.061 151.093 125.837 151.005 125.661 150.829C125.493 150.653 125.409 150.429 125.409 150.157V146.581H123.645V145.141ZM136.193 145.141H137.705V151.093H136.193V150.229H135.977C135.713 150.917 135.145 151.261 134.273 151.261C133.977 151.261 133.701 151.213 133.445 151.117C133.189 151.021 132.965 150.873 132.773 150.673C132.581 150.473 132.429 150.225 132.317 149.929C132.213 149.625 132.161 149.269 132.161 148.861V145.141H133.673V148.549C133.673 148.973 133.773 149.305 133.973 149.545C134.173 149.777 134.473 149.893 134.873 149.893C135.329 149.893 135.661 149.749 135.869 149.461C136.085 149.165 136.193 148.765 136.193 148.261V145.141ZM140.221 145.141H142.741V146.005H142.957C143.069 145.677 143.257 145.425 143.521 145.249C143.793 145.065 144.117 144.973 144.493 144.973C145.085 144.973 145.561 145.161 145.921 145.537C146.281 145.905 146.461 146.469 146.461 147.229V147.493L144.901 147.637V147.469C144.901 147.141 144.817 146.881 144.649 146.689C144.481 146.489 144.229 146.389 143.893 146.389C143.557 146.389 143.293 146.505 143.101 146.737C142.909 146.969 142.813 147.301 142.813 147.733V149.653H144.181V151.093H140.077V149.653H141.301V146.581H140.221V145.141ZM152.888 145.141H154.4V152.557C154.4 152.829 154.312 153.053 154.136 153.229C153.968 153.405 153.748 153.493 153.476 153.493H149.936V152.053H152.564C152.78 152.053 152.888 151.933 152.888 151.693V150.229H152.672C152.408 150.917 151.84 151.261 150.968 151.261C150.672 151.261 150.396 151.213 150.14 151.117C149.884 151.021 149.66 150.873 149.468 150.673C149.276 150.473 149.124 150.225 149.012 149.929C148.908 149.625 148.856 149.269 148.856 148.861V145.141H150.368V148.549C150.368 148.973 150.468 149.305 150.668 149.545C150.868 149.777 151.168 149.893 151.568 149.893C152.024 149.893 152.356 149.749 152.564 149.461C152.78 149.165 152.888 148.765 152.888 148.261V145.141ZM65.3076 158.693H70.9236V160.205H68.9076V165.581H70.9236V167.093H65.3076V165.581H67.3236V160.205H65.3076V158.693ZM75.2393 167.093H73.7273V161.141H75.2393V162.029H75.4553C75.5913 161.693 75.8113 161.433 76.1153 161.249C76.4193 161.065 76.7753 160.973 77.1833 160.973C77.4713 160.973 77.7393 161.021 77.9873 161.117C78.2433 161.205 78.4673 161.345 78.6593 161.537C78.8513 161.729 78.9993 161.973 79.1033 162.269C79.2153 162.565 79.2713 162.917 79.2713 163.325V167.093H77.7593V163.709C77.7593 163.285 77.6553 162.953 77.4473 162.713C77.2473 162.465 76.9553 162.341 76.5713 162.341C76.1233 162.341 75.7873 162.493 75.5633 162.797C75.3473 163.093 75.2393 163.493 75.2393 163.997V167.093ZM83.9709 162.821C83.9709 163.013 84.0709 163.153 84.2709 163.241C84.4709 163.321 84.8349 163.389 85.3629 163.445C85.9709 163.509 86.4669 163.693 86.8509 163.997C87.2349 164.293 87.4269 164.709 87.4269 165.245V165.317C87.4269 165.909 87.2109 166.381 86.7789 166.733C86.3469 167.085 85.7389 167.261 84.9549 167.261C84.4909 167.261 84.0949 167.201 83.7669 167.081C83.4389 166.961 83.1669 166.813 82.9509 166.637C82.7349 166.453 82.5669 166.253 82.4469 166.037C82.3349 165.813 82.2589 165.597 82.2189 165.389L83.6109 164.933C83.6749 165.189 83.8069 165.413 84.0069 165.605C84.2149 165.797 84.5309 165.893 84.9549 165.893C85.3309 165.893 85.5869 165.837 85.7229 165.725C85.8669 165.605 85.9389 165.477 85.9389 165.341C85.9389 165.261 85.9189 165.189 85.8789 165.125C85.8469 165.053 85.7829 164.989 85.6869 164.933C85.5909 164.869 85.4589 164.817 85.2909 164.777C85.1309 164.737 84.9269 164.705 84.6789 164.681C84.0069 164.625 83.4709 164.453 83.0709 164.165C82.6789 163.869 82.4829 163.437 82.4829 162.869V162.797C82.4829 162.501 82.5469 162.241 82.6749 162.017C82.8029 161.793 82.9709 161.605 83.1789 161.453C83.3869 161.293 83.6269 161.173 83.8989 161.093C84.1709 161.013 84.4509 160.973 84.7389 160.973C85.1149 160.973 85.4389 161.021 85.7109 161.117C85.9909 161.205 86.2269 161.325 86.4189 161.477C86.6109 161.621 86.7669 161.785 86.8869 161.969C87.0069 162.145 87.0989 162.317 87.1629 162.485L85.7949 163.037C85.7229 162.821 85.5989 162.653 85.4229 162.533C85.2469 162.405 85.0189 162.341 84.7389 162.341C84.4829 162.341 84.2909 162.389 84.1629 162.485C84.0349 162.573 83.9709 162.685 83.9709 162.821ZM94.4546 161.141H95.9666V167.093H94.4546V166.229H94.2386C93.9746 166.917 93.4066 167.261 92.5346 167.261C92.2386 167.261 91.9626 167.213 91.7066 167.117C91.4506 167.021 91.2266 166.873 91.0346 166.673C90.8426 166.473 90.6906 166.225 90.5786 165.929C90.4746 165.625 90.4226 165.269 90.4226 164.861V161.141H91.9346V164.549C91.9346 164.973 92.0346 165.305 92.2346 165.545C92.4346 165.777 92.7346 165.893 93.1346 165.893C93.5906 165.893 93.9226 165.749 94.1306 165.461C94.3466 165.165 94.4546 164.765 94.4546 164.261V161.141ZM98.4822 161.141H101.002V162.005H101.218C101.33 161.677 101.518 161.425 101.782 161.249C102.054 161.065 102.378 160.973 102.754 160.973C103.346 160.973 103.822 161.161 104.182 161.537C104.542 161.905 104.722 162.469 104.722 163.229V163.493L103.162 163.637V163.469C103.162 163.141 103.078 162.881 102.91 162.689C102.742 162.489 102.49 162.389 102.154 162.389C101.818 162.389 101.554 162.505 101.362 162.737C101.17 162.969 101.074 163.301 101.074 163.733V165.653H102.442V167.093H98.3382V165.653H99.5622V162.581H98.4822V161.141ZM110.97 166.229C110.81 166.605 110.586 166.873 110.298 167.033C110.01 167.185 109.674 167.261 109.29 167.261C108.93 167.261 108.59 167.193 108.27 167.057C107.958 166.921 107.682 166.721 107.442 166.457C107.202 166.193 107.01 165.873 106.866 165.497C106.73 165.121 106.662 164.693 106.662 164.213V164.021C106.662 163.549 106.73 163.125 106.866 162.749C107.002 162.373 107.186 162.053 107.418 161.789C107.65 161.525 107.918 161.325 108.222 161.189C108.534 161.045 108.866 160.973 109.218 160.973C109.642 160.973 109.982 161.045 110.238 161.189C110.502 161.333 110.71 161.557 110.862 161.861H111.078V161.141H112.59V165.293C112.59 165.533 112.698 165.653 112.914 165.653H113.142V167.093H112.11C111.838 167.093 111.614 167.013 111.438 166.853C111.27 166.693 111.186 166.485 111.186 166.229H110.97ZM109.626 165.821C110.066 165.821 110.418 165.677 110.682 165.389C110.946 165.093 111.078 164.693 111.078 164.189V164.045C111.078 163.541 110.946 163.145 110.682 162.857C110.418 162.561 110.066 162.413 109.626 162.413C109.186 162.413 108.834 162.561 108.57 162.857C108.306 163.145 108.174 163.541 108.174 164.045V164.189C108.174 164.693 108.306 165.093 108.57 165.389C108.834 165.677 109.186 165.821 109.626 165.821ZM116.978 167.093H115.466V161.141H116.978V162.029H117.194C117.33 161.693 117.55 161.433 117.854 161.249C118.158 161.065 118.514 160.973 118.922 160.973C119.21 160.973 119.478 161.021 119.726 161.117C119.982 161.205 120.206 161.345 120.398 161.537C120.59 161.729 120.738 161.973 120.842 162.269C120.954 162.565 121.01 162.917 121.01 163.325V167.093H119.498V163.709C119.498 163.285 119.394 162.953 119.186 162.713C118.986 162.465 118.694 162.341 118.31 162.341C117.862 162.341 117.526 162.493 117.302 162.797C117.086 163.093 116.978 163.493 116.978 163.997V167.093ZM129.621 164.909C129.485 165.613 129.161 166.181 128.649 166.613C128.145 167.045 127.469 167.261 126.621 167.261C126.181 167.261 125.769 167.193 125.385 167.057C125.009 166.921 124.681 166.725 124.401 166.469C124.121 166.213 123.901 165.897 123.741 165.521C123.581 165.145 123.501 164.717 123.501 164.237V164.093C123.501 163.613 123.581 163.181 123.741 162.797C123.901 162.413 124.121 162.085 124.401 161.813C124.689 161.541 125.021 161.333 125.397 161.189C125.781 161.045 126.189 160.973 126.621 160.973C127.453 160.973 128.125 161.189 128.637 161.621C129.157 162.053 129.485 162.621 129.621 163.325L128.133 163.709C128.085 163.357 127.933 163.053 127.677 162.797C127.421 162.541 127.061 162.413 126.597 162.413C126.381 162.413 126.177 162.453 125.985 162.533C125.793 162.613 125.625 162.729 125.481 162.881C125.337 163.025 125.221 163.205 125.133 163.421C125.053 163.629 125.013 163.865 125.013 164.129V164.201C125.013 164.465 125.053 164.701 125.133 164.909C125.221 165.109 125.337 165.277 125.481 165.413C125.625 165.549 125.793 165.653 125.985 165.725C126.177 165.789 126.381 165.821 126.597 165.821C127.061 165.821 127.413 165.705 127.653 165.473C127.901 165.241 128.061 164.929 128.133 164.537L129.621 164.909ZM133.493 164.609C133.501 164.785 133.541 164.949 133.613 165.101C133.693 165.245 133.797 165.373 133.925 165.485C134.061 165.589 134.213 165.673 134.381 165.737C134.557 165.793 134.741 165.821 134.933 165.821C135.309 165.821 135.597 165.757 135.797 165.629C135.997 165.493 136.141 165.333 136.229 165.149L137.525 165.869C137.453 166.021 137.353 166.181 137.225 166.349C137.097 166.509 136.929 166.657 136.721 166.793C136.521 166.929 136.273 167.041 135.977 167.129C135.689 167.217 135.349 167.261 134.957 167.261C134.509 167.261 134.101 167.189 133.733 167.045C133.365 166.901 133.045 166.693 132.773 166.421C132.509 166.149 132.301 165.817 132.149 165.425C132.005 165.033 131.933 164.589 131.933 164.093V164.021C131.933 163.565 132.009 163.149 132.161 162.773C132.321 162.397 132.537 162.077 132.809 161.813C133.081 161.549 133.397 161.345 133.757 161.201C134.125 161.049 134.517 160.973 134.933 160.973C135.445 160.973 135.885 161.065 136.253 161.249C136.621 161.425 136.925 161.653 137.165 161.933C137.405 162.205 137.581 162.509 137.693 162.845C137.805 163.173 137.861 163.493 137.861 163.805V164.609H133.493ZM134.921 162.341C134.537 162.341 134.225 162.441 133.985 162.641C133.745 162.833 133.589 163.057 133.517 163.313H136.325C136.277 163.033 136.125 162.801 135.869 162.617C135.621 162.433 135.305 162.341 134.921 162.341ZM151.616 165.821C151.92 165.821 152.168 165.777 152.36 165.689C152.56 165.593 152.712 165.469 152.816 165.317C152.928 165.157 153.004 164.977 153.044 164.777C153.084 164.569 153.104 164.357 153.104 164.141V163.925H154.688V164.141C154.688 165.141 154.424 165.913 153.896 166.457C153.376 166.993 152.616 167.261 151.616 167.261C150.656 167.261 149.896 166.969 149.336 166.385C148.776 165.801 148.496 164.949 148.496 163.829V161.957C148.496 161.421 148.568 160.941 148.712 160.517C148.856 160.085 149.064 159.725 149.336 159.437C149.608 159.141 149.936 158.917 150.32 158.765C150.704 158.605 151.136 158.525 151.616 158.525C152.112 158.525 152.552 158.597 152.936 158.741C153.32 158.885 153.64 159.093 153.896 159.365C154.16 159.637 154.356 159.965 154.484 160.349C154.62 160.733 154.688 161.165 154.688 161.645V161.861H153.104V161.645C153.104 161.445 153.08 161.245 153.032 161.045C152.984 160.845 152.904 160.665 152.792 160.505C152.68 160.345 152.528 160.217 152.336 160.121C152.144 160.017 151.904 159.965 151.616 159.965C151.352 159.965 151.124 160.017 150.932 160.121C150.74 160.217 150.58 160.353 150.452 160.529C150.324 160.697 150.228 160.897 150.164 161.129C150.108 161.353 150.08 161.589 150.08 161.837V163.949C150.08 164.221 150.108 164.473 150.164 164.705C150.22 164.929 150.308 165.125 150.428 165.293C150.548 165.461 150.704 165.593 150.896 165.689C151.096 165.777 151.336 165.821 151.616 165.821ZM163.036 164.189C163.036 164.685 162.952 165.125 162.784 165.509C162.616 165.885 162.388 166.205 162.1 166.469C161.812 166.725 161.48 166.921 161.104 167.057C160.736 167.193 160.348 167.261 159.94 167.261C159.532 167.261 159.14 167.193 158.764 167.057C158.396 166.921 158.068 166.725 157.78 166.469C157.492 166.205 157.264 165.885 157.096 165.509C156.928 165.125 156.844 164.685 156.844 164.189V164.045C156.844 163.557 156.928 163.125 157.096 162.749C157.264 162.365 157.492 162.041 157.78 161.777C158.068 161.513 158.396 161.313 158.764 161.177C159.14 161.041 159.532 160.973 159.94 160.973C160.348 160.973 160.736 161.041 161.104 161.177C161.48 161.313 161.812 161.513 162.1 161.777C162.388 162.041 162.616 162.365 162.784 162.749C162.952 163.125 163.036 163.557 163.036 164.045V164.189ZM159.94 165.821C160.156 165.821 160.36 165.785 160.552 165.713C160.744 165.641 160.912 165.537 161.056 165.401C161.2 165.265 161.312 165.101 161.392 164.909C161.48 164.709 161.524 164.485 161.524 164.237V163.997C161.524 163.749 161.48 163.529 161.392 163.337C161.312 163.137 161.2 162.969 161.056 162.833C160.912 162.697 160.744 162.593 160.552 162.521C160.36 162.449 160.156 162.413 159.94 162.413C159.724 162.413 159.52 162.449 159.328 162.521C159.136 162.593 158.968 162.697 158.824 162.833C158.68 162.969 158.564 163.137 158.476 163.337C158.396 163.529 158.356 163.749 158.356 163.997V164.237C158.356 164.485 158.396 164.709 158.476 164.909C158.564 165.101 158.68 165.265 158.824 165.401C158.968 165.537 159.136 165.641 159.328 165.713C159.52 165.785 159.724 165.821 159.94 165.821ZM171.527 167.093H170.015V162.917C170.015 162.749 169.971 162.625 169.883 162.545C169.803 162.457 169.695 162.413 169.559 162.413C169.399 162.413 169.271 162.461 169.175 162.557C169.087 162.653 169.043 162.797 169.043 162.989V167.093H167.531V162.917C167.531 162.749 167.483 162.625 167.387 162.545C167.299 162.457 167.191 162.413 167.063 162.413C166.919 162.413 166.799 162.461 166.703 162.557C166.607 162.653 166.559 162.797 166.559 162.989V167.093H165.047V161.141H166.559V161.717H166.775C166.823 161.501 166.931 161.325 167.099 161.189C167.275 161.045 167.503 160.973 167.783 160.973C168.047 160.973 168.271 161.045 168.455 161.189C168.639 161.325 168.763 161.501 168.827 161.717H169.043C169.107 161.501 169.239 161.325 169.439 161.189C169.647 161.045 169.903 160.973 170.207 160.973C170.607 160.973 170.927 161.109 171.167 161.381C171.407 161.645 171.527 162.013 171.527 162.485V167.093ZM175.099 169.493H173.587V161.141H175.099V162.005H175.315C175.475 161.677 175.707 161.425 176.011 161.249C176.315 161.065 176.703 160.973 177.175 160.973C177.527 160.973 177.859 161.041 178.171 161.177C178.491 161.313 178.767 161.513 178.999 161.777C179.239 162.033 179.427 162.349 179.563 162.725C179.707 163.101 179.779 163.529 179.779 164.009V164.225C179.779 164.713 179.711 165.145 179.575 165.521C179.439 165.897 179.255 166.217 179.023 166.481C178.791 166.737 178.515 166.933 178.195 167.069C177.883 167.197 177.543 167.261 177.175 167.261C176.903 167.261 176.667 167.233 176.467 167.177C176.267 167.121 176.091 167.045 175.939 166.949C175.795 166.853 175.671 166.745 175.567 166.625C175.471 166.497 175.387 166.365 175.315 166.229H175.099V169.493ZM176.683 165.821C177.155 165.821 177.535 165.677 177.823 165.389C178.119 165.093 178.267 164.693 178.267 164.189V164.045C178.267 163.541 178.119 163.145 177.823 162.857C177.535 162.561 177.155 162.413 176.683 162.413C176.211 162.413 175.827 162.565 175.531 162.869C175.243 163.165 175.099 163.557 175.099 164.045V164.189C175.099 164.677 175.243 165.073 175.531 165.377C175.827 165.673 176.211 165.821 176.683 165.821ZM186.099 166.229C185.939 166.605 185.715 166.873 185.427 167.033C185.139 167.185 184.803 167.261 184.419 167.261C184.059 167.261 183.719 167.193 183.399 167.057C183.087 166.921 182.811 166.721 182.571 166.457C182.331 166.193 182.139 165.873 181.995 165.497C181.859 165.121 181.791 164.693 181.791 164.213V164.021C181.791 163.549 181.859 163.125 181.995 162.749C182.131 162.373 182.315 162.053 182.547 161.789C182.779 161.525 183.047 161.325 183.351 161.189C183.663 161.045 183.995 160.973 184.347 160.973C184.771 160.973 185.111 161.045 185.367 161.189C185.631 161.333 185.839 161.557 185.991 161.861H186.207V161.141H187.719V165.293C187.719 165.533 187.827 165.653 188.043 165.653H188.271V167.093H187.239C186.967 167.093 186.743 167.013 186.567 166.853C186.399 166.693 186.315 166.485 186.315 166.229H186.099ZM184.755 165.821C185.195 165.821 185.547 165.677 185.811 165.389C186.075 165.093 186.207 164.693 186.207 164.189V164.045C186.207 163.541 186.075 163.145 185.811 162.857C185.547 162.561 185.195 162.413 184.755 162.413C184.315 162.413 183.963 162.561 183.699 162.857C183.435 163.145 183.303 163.541 183.303 164.045V164.189C183.303 164.693 183.435 165.093 183.699 165.389C183.963 165.677 184.315 165.821 184.755 165.821ZM192.106 167.093H190.594V161.141H192.106V162.029H192.322C192.458 161.693 192.678 161.433 192.982 161.249C193.286 161.065 193.642 160.973 194.05 160.973C194.338 160.973 194.606 161.021 194.854 161.117C195.11 161.205 195.334 161.345 195.526 161.537C195.718 161.729 195.866 161.973 195.97 162.269C196.082 162.565 196.138 162.917 196.138 163.325V167.093H194.626V163.709C194.626 163.285 194.522 162.953 194.314 162.713C194.114 162.465 193.822 162.341 193.438 162.341C192.99 162.341 192.654 162.493 192.43 162.797C192.214 163.093 192.106 163.493 192.106 163.997V167.093ZM202.974 161.141H204.486V168.557C204.486 168.829 204.398 169.053 204.222 169.229C204.054 169.405 203.834 169.493 203.562 169.493H200.022V168.053H202.65C202.866 168.053 202.974 167.933 202.974 167.693V166.229H202.758C202.494 166.917 201.926 167.261 201.054 167.261C200.758 167.261 200.482 167.213 200.226 167.117C199.97 167.021 199.746 166.873 199.554 166.673C199.362 166.473 199.21 166.225 199.098 165.929C198.994 165.625 198.942 165.269 198.942 164.861V161.141H200.454V164.549C200.454 164.973 200.554 165.305 200.754 165.545C200.954 165.777 201.254 165.893 201.654 165.893C202.11 165.893 202.442 165.749 202.65 165.461C202.866 165.165 202.974 164.765 202.974 164.261V161.141Z" fill="white"/>
</g>
<defs>
<filter id="filter0_d_7_268" x="244.556" y="45" width="435" height="522" filterUnits="userSpaceOnUse" color-interpolation-filters="sRGB">
<feFlood flood-opacity="0" result="BackgroundImageFix"/>
<feColorMatrix in="SourceAlpha" type="matrix" values="0 0 0 0 0 0 0 0 0 0 0 0 0 0 0 0 0 0 127 0" result="hardAlpha"/>
<feOffset dy="20"/>
<feGaussianBlur stdDeviation="20"/>
<feColorMatrix type="matrix" values="0 0 0 0 0 0 0 0 0 0 0 0 0 0 0 0 0 0 0.12 0"/>
<feBlend mode="normal" in2="BackgroundImageFix" result="effect1_dropShadow_7_268"/>
<feBlend mode="normal" in="SourceGraphic" in2="effect1_dropShadow_7_268" result="shape"/>
</filter>
<filter id="filter1_d_7_268" x="215.726" y="245.731" width="270.487" height="217.776" filterUnits="userSpaceOnUse" color-interpolation-filters="sRGB">
<feFlood flood-opacity="0" result="BackgroundImageFix"/>
<feColorMatrix in="SourceAlpha" type="matrix" values="0 0 0 0 0 0 0 0 0 0 0 0 0 0 0 0 0 0 127 0" result="hardAlpha"/>
<feOffset dy="37.6119"/>
<feGaussianBlur stdDeviation="51.0448"/>
<feColorMatrix type="matrix" values="0 0 0 0 0.960784 0 0 0 0 0.960784 0 0 0 0 0.960784 0 0 0 0.28 0"/>
<feBlend mode="normal" in2="BackgroundImageFix" result="effect1_dropShadow_7_268"/>
<feBlend mode="normal" in="SourceGraphic" in2="effect1_dropShadow_7_268" result="shape"/>
</filter>
<filter id="filter2_d_7_268" x="214.238" y="85.6842" width="493.403" height="217.666" filterUnits="userSpaceOnUse" color-interpolation-filters="sRGB">
<feFlood flood-opacity="0" result="BackgroundImageFix"/>
<feColorMatrix in="SourceAlpha" type="matrix" values="0 0 0 0 0 0 0 0 0 0 0 0 0 0 0 0 0 0 127 0" result="hardAlpha"/>
<feOffset dy="37.6119"/>
<feGaussianBlur stdDeviation="51.0448"/>
<feColorMatrix type="matrix" values="0 0 0 0 0.960784 0 0 0 0 0.960784 0 0 0 0 0.960784 0 0 0 0.28 0"/>
<feBlend mode="normal" in2="BackgroundImageFix" result="effect1_dropShadow_7_268"/>
<feBlend mode="normal" in="SourceGraphic" in2="effect1_dropShadow_7_268" result="shape"/>
</filter>
<filter id="filter3_d_7_268" x="214.05" y="395.179" width="376.248" height="219.068" filterUnits="userSpaceOnUse" color-interpolation-filters="sRGB">
<feFlood flood-opacity="0" result="BackgroundImageFix"/>
<feColorMatrix in="SourceAlpha" type="matrix" values="0 0 0 0 0 0 0 0 0 0 0 0 0 0 0 0 0 0 127 0" result="hardAlpha"/>
<feOffset dy="37.6119"/>
<feGaussianBlur stdDeviation="51.0448"/>
<feColorMatrix type="matrix" values="0 0 0 0 0.960784 0 0 0 0 0.960784 0 0 0 0 0.960784 0 0 0 0.28 0"/>
<feBlend mode="normal" in2="BackgroundImageFix" result="effect1_dropShadow_7_268"/>
<feBlend mode="normal" in="SourceGraphic" in2="effect1_dropShadow_7_268" result="shape"/>
</filter>
<clipPath id="clip0_7_268">
<rect width="680" height="600" fill="white"/>
</clipPath>
</defs>
</svg>
